
<svg version="1.1" id="logoLayer" xmlns="http://www.w3.org/2000/svg" xmlns:xlink="http://www.w3.org/1999/xlink" x="0px" y="0px"
	 width="100px" height="40px" viewBox="0 0 100 40" enable-background="new 0 0 100 40" xml:space="preserve">
<g>
	<path d="M18.9,10h11c2.5,0,4.3,0.6,5.6,2s1.9,3.1,1.9,5.3c0,1.3-0.4,2.4-1,3.5c-0.7,1-1.6,1.9-2.7,2.5c0.4,0.3,0.8,0.8,1,1.4
		l2.4,5.3H30l-2-4.6c-0.2-0.3-0.3-0.6-0.5-0.6c-0.2-0.1-0.5-0.2-0.8-0.2h-1V30h-6.9L18.9,10L18.9,10z M28.2,19.4
		c0.8,0,1.3-0.2,1.7-0.6s0.6-0.8,0.6-1.6c0-1.4-0.7-2.1-2.1-2.1h-2.7v4.2h2.5V19.4z"/>
	<path d="M39.6,10h15.8v4.9h-9v2.6h7.9v5.1h-7.9v2.5h9V30H39.6V10z"/>
	<path d="M57.5,26.7l8.1-11.4H58V10h16.6v3.7l-8,11.2h8.2V30H57.5V26.7z"/>
	<path d="M84.7,10h7.1l7.8,20h-7.1L91,26h-5.5L84,30h-7.1L84.7,10z M90.2,21.4l-1.9-4.9l-1.9,4.9H90.2z"/>
	<path d="M2.2,30h-2.6V10h2.3l11.4,16.1V10h2.6v20h-2.4L2.2,14V30z"/>
</g>
</svg>
